<svg xmlns="http://www.w3.org/2000/svg" xmlns:xlink="http://www.w3.org/1999/xlink" width="2000" zoomAndPan="magnify" viewBox="0 0 1500 749.999995" height="1000" preserveAspectRatio="xMidYMid meet" version="1.2"><defs><clipPath id="9babf0b467"><path d="M 39 111.394531 L 1462 111.394531 L 1462 638.644531 L 39 638.644531 Z M 39 111.394531 "/></clipPath><clipPath id="e62f8a903d"><path d="M 201.257812 375 L 211.910156 375 L 211.910156 385.652344 L 201.257812 385.652344 Z M 201.257812 375 "/></clipPath><clipPath id="38abe68f17"><path d="M 206.582031 375 C 203.640625 375 201.257812 377.386719 201.257812 380.328125 C 201.257812 383.269531 203.640625 385.652344 206.582031 385.652344 C 209.523438 385.652344 211.910156 383.269531 211.910156 380.328125 C 211.910156 377.386719 209.523438 375 206.582031 375 Z M 206.582031 375 "/></clipPath></defs><g id="68a9349646"><g clip-rule="nonzero" clip-path="url(#9babf0b467)"><path style=" stroke:none;fill-rule:nonzero;fill:#ebcc00;fill-opacity:1;" d="M 655.675781 556.910156 C 657.890625 561.363281 660.035156 565.953125 662.414062 570.417969 C 670.585938 585.734375 674.105469 602.429688 677.0625 619.300781 C 677.917969 624.1875 677.179688 629.050781 676.878906 633.917969 C 676.667969 637.34375 674.582031 638.621094 671.382812 638.082031 C 668.503906 637.59375 665.625 637 662.808594 636.21875 C 648.234375 632.171875 633.511719 628.578125 619.160156 623.847656 C 589.558594 614.082031 563.164062 598.671875 540.40625 577.195312 C 532.59375 569.824219 524.445312 562.8125 516.609375 555.46875 C 514.339844 553.34375 511.730469 553.40625 509.113281 553.300781 C 492.519531 552.625 475.976562 550.996094 459.398438 550.199219 C 422.476562 548.421875 386.085938 542.738281 349.804688 536.175781 C 335.644531 533.613281 321.59375 530.433594 307.515625 527.453125 C 286.390625 522.976562 266.667969 514.433594 246.625 506.722656 C 216.125 494.988281 185.515625 483.582031 153.5625 476.109375 C 131.242188 470.894531 109.113281 464.808594 87.390625 457.378906 C 78.246094 454.253906 70.0625 449.53125 63.136719 442.746094 C 56.335938 436.078125 49.351562 429.546875 43.945312 421.636719 C 41.390625 417.898438 37.960938 414.078125 40.921875 408.996094 C 44.117188 403.511719 48.382812 399.289062 55.117188 398.714844 C 60.066406 398.296875 64.851562 399.222656 69.378906 401.285156 C 75.152344 403.914062 81.128906 406.203125 86.609375 409.347656 C 97.113281 415.375 108.359375 419.179688 120.066406 421.859375 C 120.78125 422.023438 121.492188 422.285156 122.210938 422.304688 C 124.003906 422.351562 126.496094 423.664062 127.117188 420.898438 C 127.695312 418.308594 125.117188 417.878906 123.371094 417.269531 C 113.007812 413.644531 102.632812 410.089844 92.820312 405.058594 C 86.886719 402.019531 81.457031 398.363281 77.042969 393.351562 C 71.484375 387.035156 71.761719 383.433594 78.433594 378.144531 C 84.195312 373.578125 90.617188 369.953125 97.238281 366.839844 C 120.371094 355.976562 144.601562 349.296875 170.015625 345.738281 C 208.171875 340.398438 246.453125 335.257812 283.199219 322.703125 C 295 318.671875 306.332031 313.523438 317.832031 308.800781 C 352.726562 294.46875 388.734375 284.003906 425.691406 276.691406 C 451.402344 271.605469 477.382812 269.105469 503.578125 269.144531 C 521.164062 269.171875 538.746094 269.601562 556.332031 269.800781 C 562.257812 269.871094 562.230469 269.792969 563.648438 264.261719 C 573.527344 225.644531 591.539062 191.488281 619.351562 162.707031 C 628.855469 152.871094 638.324219 143 647.816406 133.152344 C 655.527344 125.160156 664.378906 118.757812 674.429688 114.007812 C 677.316406 112.644531 680.183594 111.386719 683.476562 111.390625 C 690.691406 111.40625 693.882812 116.046875 690.445312 122.484375 C 687.832031 127.375 687.488281 132.125 688.605469 137.320312 C 689.175781 139.953125 689.921875 141.34375 692.976562 139.917969 C 697.410156 137.847656 700.875 139.625 704.007812 143.015625 C 707.425781 146.710938 707.035156 150.527344 704.90625 154.46875 C 700.847656 161.976562 702.011719 169.632812 704.226562 177.253906 C 705.484375 181.578125 706.097656 181.703125 710.332031 180.179688 C 711.476562 179.769531 712.601562 179.175781 713.78125 179.035156 C 717.511719 178.589844 721.296875 178.496094 723.566406 182.253906 C 725.667969 185.738281 724.179688 188.753906 721.933594 191.640625 C 720.289062 193.753906 718.730469 195.964844 717.375 198.273438 C 713.449219 204.960938 715.550781 211.488281 718.152344 217.945312 C 718.6875 219.269531 719.808594 219.585938 721.160156 219.214844 C 722.808594 218.765625 724.445312 218.203125 726.125 217.949219 C 730.316406 217.3125 734.015625 219.070312 735.386719 222.1875 C 736.824219 225.457031 735.839844 228.8125 731.882812 231.539062 C 727.351562 234.664062 725.515625 238.617188 726.324219 244.023438 C 727.1875 249.808594 727.101562 249.824219 733.121094 250.4375 C 738.046875 250.941406 741.8125 254.375 740.792969 259.230469 C 738.527344 270.007812 746.582031 276.324219 750.492188 284.429688 C 751.449219 286.410156 753.472656 285.773438 755.078125 285.679688 C 762.878906 285.230469 770.679688 284.738281 778.46875 284.125 C 792.582031 283.011719 806.652344 281.191406 820.847656 281.375 C 822.914062 281.402344 824.359375 281.003906 825.71875 279.09375 C 836.316406 264.222656 849.769531 252.246094 864.257812 241.289062 C 880.992188 228.632812 896.582031 214.472656 914.847656 203.835938 C 928.570312 195.84375 942.160156 187.699219 957.222656 182.355469 C 963.664062 180.070312 969.867188 177.144531 975.574219 173.308594 C 981.085938 169.597656 987.417969 167.601562 993.351562 164.789062 C 998.160156 162.503906 1002.320312 165.507812 1002.734375 171.394531 C 1003.140625 177.269531 1003.988281 183.039062 1005.332031 188.75 C 1006.792969 194.953125 1009 200.863281 1011.875 206.570312 C 1026.839844 236.277344 1043.933594 264.703125 1062.75 292.125 C 1071.460938 304.816406 1079.667969 317.855469 1084.800781 332.511719 C 1085.847656 335.511719 1087.859375 336.453125 1090.675781 337.125 C 1130.453125 346.667969 1169.527344 344.9375 1208.085938 330.765625 C 1227.613281 323.589844 1246.386719 315.246094 1264.386719 304.617188 C 1290.414062 289.246094 1316.71875 274.230469 1345.339844 263.816406 C 1361.378906 257.980469 1376.441406 249.6875 1392.636719 244.144531 C 1399.808594 241.6875 1407.089844 239.695312 1414.457031 237.976562 C 1424.445312 235.640625 1432.3125 237.941406 1438.714844 246.796875 C 1445.230469 255.8125 1451.125 264.6875 1453.234375 275.9375 C 1455.238281 286.648438 1453.367188 296.578125 1448.089844 305.535156 C 1438.183594 322.355469 1427.582031 338.769531 1417.035156 355.203125 C 1411.242188 364.238281 1405.914062 373.605469 1399.078125 381.945312 C 1390.203125 392.78125 1390.566406 404.097656 1396.804688 416.042969 C 1401.621094 425.269531 1408.605469 432.777344 1415.203125 440.605469 C 1427.964844 455.757812 1439.285156 472.027344 1450.324219 488.378906 C 1458.90625 501.09375 1461.207031 516.421875 1461.667969 531.761719 C 1461.71875 533.46875 1461.476562 535.183594 1461.546875 536.886719 C 1462.21875 552.554688 1454.285156 562.457031 1440.753906 569.136719 C 1424.96875 576.933594 1408.398438 577.449219 1391.394531 575.851562 C 1374.566406 574.273438 1359.128906 568.976562 1344.5 560.496094 C 1331.417969 552.910156 1317.78125 546.292969 1304.453125 539.121094 C 1290.664062 531.703125 1277.488281 523.320312 1265.386719 513.335938 C 1256.132812 505.703125 1246.238281 498.984375 1236.046875 492.699219 C 1219.320312 482.378906 1201.164062 476.496094 1181.484375 475.410156 C 1159.195312 474.179688 1137.0625 474.511719 1115.425781 481.050781 C 1109.824219 482.742188 1109.742188 482.539062 1110.683594 488.207031 C 1115.363281 516.414062 1115.339844 544.558594 1110.367188 572.769531 C 1108.550781 583.085938 1107.765625 593.605469 1109.320312 604.144531 C 1110.085938 609.355469 1111.484375 614.113281 1115.59375 617.769531 C 1117.832031 619.761719 1119.742188 622.09375 1118.539062 625.433594 C 1117.210938 629.117188 1113.882812 629.457031 1110.710938 629.679688 C 1100.890625 630.359375 1091.222656 628.996094 1081.609375 627.179688 C 1078.015625 626.5 1074.398438 625.835938 1070.890625 624.820312 C 1059.9375 621.65625 1048.820312 620.847656 1037.539062 622.167969 C 1031.535156 622.871094 1026.539062 620.726562 1021.964844 617.132812 C 1008.144531 606.261719 994.40625 595.289062 980.480469 584.558594 C 961.527344 569.949219 942.425781 555.535156 923.402344 541.023438 C 921.230469 539.367188 919.292969 538.285156 916.132812 539.148438 C 880.789062 548.828125 844.480469 551.164062 808.109375 552.742188 C 779.074219 554 750.023438 554.859375 720.984375 556.050781 C 700.957031 556.871094 680.945312 557.175781 660.921875 556.082031 C 659.324219 556 657.578125 555.367188 655.675781 556.910156 Z M 965.675781 196.621094 C 956.496094 198.472656 948.316406 202.777344 940.125 207.054688 C 908.535156 223.570312 882.183594 247.394531 854.101562 268.800781 C 849.285156 272.46875 845.394531 277.183594 841.871094 281.976562 C 843.101562 283.738281 844.667969 283.617188 846.011719 283.976562 C 851.152344 285.351562 855.160156 284.675781 858.230469 279.402344 C 861.527344 273.738281 865.949219 268.75 870.464844 263.933594 C 893.867188 238.964844 920.054688 217.796875 951.824219 204.21875 C 955.179688 202.785156 958.441406 201.109375 961.675781 199.414062 C 963.105469 198.667969 965.011719 198.4375 965.558594 196.480469 C 972.363281 194.777344 979.144531 192.96875 985.976562 191.398438 C 991.320312 190.171875 991.351562 190.300781 988.308594 183.753906 C 981.15625 188.828125 973.039062 192.019531 965.675781 196.621094 Z M 63.941406 414.714844 C 63.671875 415.195312 63.40625 415.671875 63.136719 416.152344 C 72.101562 426.425781 81.203125 436.296875 95.003906 440.675781 C 114.785156 446.953125 134.695312 452.796875 154.894531 457.472656 C 188.292969 465.203125 220.503906 476.550781 252.179688 489.308594 C 279.214844 500.199219 306.617188 509.351562 335.296875 514.746094 C 375.625 522.332031 416.007812 529.238281 457.0625 531.703125 C 492.660156 533.84375 528.210938 536.511719 563.917969 536.269531 C 591.023438 536.085938 618.164062 535.316406 645.242188 536.941406 C 674.550781 538.695312 703.835938 538.449219 733.136719 537.304688 C 762.910156 536.136719 792.683594 534.894531 822.453125 533.617188 C 844.1875 532.683594 865.847656 530.785156 887.238281 526.789062 C 914.605469 521.675781 941.546875 514.511719 968.148438 506.507812 C 1008.792969 494.269531 1049.746094 483.007812 1089.910156 469.191406 C 1103.09375 464.660156 1116.679688 461.621094 1130.316406 458.90625 C 1148.210938 455.34375 1166.273438 456.140625 1184.351562 457.3125 C 1200.882812 458.386719 1216.625 462.289062 1231.550781 469.480469 C 1247.707031 477.265625 1262.359375 487.386719 1276.277344 498.582031 C 1287.738281 507.800781 1299.9375 515.863281 1312.867188 522.824219 C 1326.832031 530.347656 1341.183594 537.210938 1354.808594 545.308594 C 1370.042969 554.359375 1386.566406 557.414062 1403.78125 558.394531 C 1409.699219 558.730469 1415.542969 558.113281 1421.519531 556.453125 C 1420.980469 555.644531 1420.886719 555.328125 1420.71875 555.277344 C 1417.222656 554.261719 1413.734375 553.222656 1410.21875 552.285156 C 1373.148438 542.40625 1342.15625 520.960938 1310.882812 500.0625 C 1309.503906 499.140625 1308.308594 497.789062 1307.371094 496.402344 C 1306.328125 494.863281 1306.519531 493.046875 1307.785156 491.660156 C 1308.796875 490.546875 1310.203125 490.023438 1311.78125 490.417969 C 1314.21875 491.03125 1316.109375 492.628906 1318.164062 493.9375 C 1331.75 502.601562 1345.222656 511.457031 1358.957031 519.875 C 1380.367188 532.996094 1403.464844 542.101562 1427.941406 547.617188 C 1440.09375 550.351562 1442.882812 548.019531 1443.316406 535.613281 C 1443.546875 528.972656 1443.574219 528.835938 1437.292969 527.488281 C 1397.570312 518.941406 1360.238281 504.363281 1325.484375 483.265625 C 1323.605469 482.125 1321.683594 481.035156 1319.925781 479.730469 C 1317.574219 477.984375 1314.699219 476.089844 1316.753906 472.625 C 1318.757812 469.246094 1321.726562 470.425781 1324.4375 471.914062 C 1326.367188 472.96875 1328.269531 474.070312 1330.148438 475.207031 C 1363.425781 495.335938 1399.125 509.503906 1436.910156 518.519531 C 1438.285156 518.847656 1439.726562 519.496094 1441.4375 518.121094 C 1440.449219 512.34375 1438.9375 506.527344 1436.652344 500.921875 C 1435.566406 498.257812 1434.1875 496.800781 1430.558594 497.59375 C 1427.394531 498.28125 1423.796875 497.371094 1420.453125 496.789062 C 1386.417969 490.878906 1354.777344 478.351562 1324.59375 461.855469 C 1322.886719 460.925781 1321.195312 459.890625 1319.691406 458.667969 C 1317.636719 457.007812 1316.378906 454.835938 1318.113281 452.300781 C 1319.578125 450.15625 1321.761719 450.117188 1323.984375 451.199219 C 1325.742188 452.050781 1327.496094 452.90625 1329.21875 453.820312 C 1357.570312 468.914062 1386.925781 481.355469 1418.628906 487.542969 C 1421.308594 488.066406 1424.007812 489.234375 1427.535156 488.105469 C 1424.175781 483.417969 1421.050781 479.390625 1418.296875 475.121094 C 1415.082031 470.140625 1411.191406 467.964844 1404.839844 467.269531 C 1374.832031 463.972656 1346.023438 455.648438 1318.0625 444.347656 C 1315.820312 443.441406 1313.457031 442.714844 1312.453125 440.066406 C 1311.398438 437.273438 1314.328125 435.933594 1315.039062 433.652344 C 1312.410156 432.640625 1310.097656 431.902344 1307.917969 430.875 C 1305.085938 429.546875 1302.875 427.628906 1303.976562 424.03125 C 1304.808594 421.320312 1307.230469 420.730469 1311.328125 421.910156 C 1315.074219 422.988281 1318.804688 424.5625 1322.625 424.851562 C 1339.910156 426.160156 1357.195312 427.867188 1374.566406 426.660156 C 1376.394531 426.53125 1378.457031 427.023438 1380.386719 425.234375 C 1379.324219 422.367188 1378 419.511719 1377.226562 416.511719 C 1376.300781 412.910156 1374.101562 412.164062 1370.753906 412.363281 C 1360.761719 412.964844 1350.757812 413.390625 1340.757812 413.804688 C 1338.820312 413.886719 1336.832031 413.824219 1334.941406 413.441406 C 1333.125 413.078125 1332.050781 411.621094 1331.878906 409.761719 C 1331.675781 407.601562 1332.582031 405.855469 1334.65625 405.121094 C 1336 404.640625 1337.507812 404.53125 1338.953125 404.433594 C 1346.507812 403.910156 1354.066406 403.480469 1361.613281 402.9375 C 1364.777344 402.707031 1367.925781 402.292969 1371.078125 401.921875 C 1372.503906 401.753906 1373.175781 400.824219 1373.199219 399.4375 C 1373.222656 397.972656 1373.34375 396.363281 1371.390625 396 C 1368.277344 395.417969 1365.164062 394.722656 1362.015625 394.460938 C 1347.113281 393.210938 1332.253906 394.246094 1317.394531 395.425781 C 1312.046875 395.851562 1306.667969 396.078125 1301.300781 396.125 C 1298.539062 396.152344 1296.652344 394.578125 1296.621094 391.597656 C 1296.59375 389.03125 1298.125 387.566406 1300.570312 387.09375 C 1301.761719 386.863281 1302.996094 386.828125 1304.207031 386.707031 C 1311.253906 386.015625 1318.289062 385.175781 1325.34375 384.664062 C 1339.710938 383.621094 1354.097656 382.222656 1368.472656 384.417969 C 1375.820312 385.539062 1375.808594 385.667969 1379.136719 379 C 1379.65625 377.953125 1380.648438 377.015625 1380.078125 375.652344 C 1379.132812 374.554688 1377.882812 374.921875 1376.710938 374.972656 C 1357.191406 375.773438 1337.6875 376.816406 1318.230469 378.625 C 1315.566406 378.871094 1312.933594 379.503906 1310.265625 379.722656 C 1308.148438 379.902344 1306.402344 378.976562 1305.667969 376.859375 C 1304.851562 374.480469 1305.652344 372.539062 1307.703125 371.144531 C 1309.367188 370.015625 1311.277344 369.652344 1313.242188 369.449219 C 1318.097656 368.941406 1322.945312 368.339844 1327.804688 367.847656 C 1347 365.894531 1366.242188 364.601562 1385.519531 363.804688 C 1387.710938 363.714844 1389.875 363.878906 1391.289062 361.566406 C 1395.210938 355.167969 1399.238281 348.832031 1403.28125 342.382812 C 1400.761719 341.332031 1398.886719 342.058594 1396.996094 342.441406 C 1382.878906 345.304688 1368.933594 348.863281 1355.109375 352.90625 C 1349.023438 354.6875 1342.925781 356.4375 1336.851562 358.257812 C 1334.226562 359.042969 1331.84375 358.863281 1330.625 356.160156 C 1329.269531 353.164062 1330.726562 350.882812 1333.410156 349.523438 C 1335.355469 348.542969 1337.484375 347.894531 1339.578125 347.246094 C 1361.949219 340.289062 1384.320312 333.316406 1407.546875 329.664062 C 1409.492188 329.359375 1411.554688 329.09375 1412.660156 327.242188 C 1415.492188 322.5 1419.316406 318.347656 1421.550781 312.894531 C 1417.84375 312.191406 1414.957031 313.84375 1411.996094 314.6875 C 1384.925781 322.40625 1358.941406 332.925781 1333.664062 345.246094 C 1331.472656 346.316406 1329.25 347.339844 1326.972656 348.210938 C 1324.574219 349.128906 1322.632812 348.265625 1321.394531 346.089844 C 1320.082031 343.789062 1320.996094 341.808594 1322.757812 340.21875 C 1323.644531 339.417969 1324.785156 338.875 1325.863281 338.316406 C 1357.378906 321.953125 1389.996094 308.457031 1424.679688 300.3125 C 1432.207031 298.546875 1433.71875 296.480469 1433.949219 287.859375 C 1431.316406 288.566406 1428.75 289.117188 1426.269531 289.945312 C 1399.859375 298.746094 1373.832031 308.609375 1348.699219 320.570312 C 1330.210938 329.371094 1311.671875 338.242188 1295.226562 350.734375 C 1293.023438 352.410156 1290.761719 352.941406 1288.648438 350.890625 C 1286.527344 348.839844 1287.019531 346.429688 1288.527344 344.226562 C 1290.359375 341.542969 1293.054688 339.816406 1295.738281 338.105469 C 1314.289062 326.28125 1333.34375 315.332031 1353.5625 306.617188 C 1378.664062 295.796875 1403.976562 285.503906 1430.199219 277.625 C 1434.121094 276.449219 1434.832031 274.007812 1432.566406 270.753906 C 1431.035156 268.554688 1429.117188 269.449219 1427.292969 269.902344 C 1419.464844 271.847656 1411.824219 274.429688 1404.410156 277.566406 C 1367.960938 292.996094 1332.324219 310.09375 1298.125 330.070312 C 1287.792969 336.109375 1277.796875 342.703125 1269.0625 350.992188 C 1266.914062 353.027344 1264.738281 354.34375 1262.027344 352.105469 C 1259.75 350.226562 1259.769531 347.367188 1262.167969 344.285156 C 1263.207031 342.949219 1264.496094 341.765625 1265.820312 340.703125 C 1270.011719 337.347656 1274.09375 333.804688 1278.546875 330.820312 C 1320.945312 302.394531 1366.945312 281.09375 1414.335938 262.582031 C 1417.492188 261.351562 1421.019531 261.105469 1423.898438 259.070312 C 1423.070312 255.425781 1420.789062 255.363281 1417.765625 256.074219 C 1410.867188 257.695312 1404.070312 259.597656 1397.378906 261.933594 C 1381.453125 267.492188 1366.617188 275.695312 1350.785156 281.394531 C 1324.421875 290.878906 1300.132812 304.589844 1276.355469 318.902344 C 1253.121094 332.886719 1228.699219 343.46875 1203.054688 351.671875 C 1168.347656 362.773438 1133.191406 364.46875 1097.480469 357.136719 C 1069.992188 351.496094 1042.570312 345.726562 1015.5 338.195312 C 991.746094 331.589844 967.167969 328.613281 943.023438 323.667969 C 914.09375 317.746094 885.671875 309.589844 856.597656 304.335938 C 838.300781 301.03125 820.035156 298.335938 801.292969 300.5625 C 787.726562 302.171875 774.035156 302.761719 760.394531 303.71875 C 734.757812 305.515625 709.109375 304.46875 683.484375 303.488281 C 663.976562 302.746094 644.515625 301.242188 625.363281 296.792969 C 609.914062 293.203125 594.3125 290.15625 578.421875 289.222656 C 548.65625 287.46875 518.851562 286.945312 489.054688 287.773438 C 476.386719 288.125 463.675781 289.324219 451.128906 291.128906 C 406.714844 297.523438 363.703125 309.292969 322.425781 326.917969 C 291.074219 340.300781 258.839844 350.386719 225.160156 355.820312 C 221.605469 356.394531 217.738281 356.214844 214.113281 358.558594 C 215.789062 359.199219 216.9375 359.582031 218.042969 360.0625 C 232.769531 366.507812 236.234375 382.242188 225.507812 394.296875 C 219.515625 401.03125 211.855469 404.464844 202.886719 404.722656 C 192.648438 405.019531 183.632812 399.488281 180.488281 391.246094 C 177.289062 382.855469 180.253906 373.011719 187.890625 366.113281 C 189.628906 364.542969 192.175781 363.792969 193.199219 361.230469 C 159.117188 365.046875 125.824219 371.015625 94.34375 387.78125 C 96.515625 388.972656 97.515625 389.671875 98.621094 390.105469 C 113.933594 396.128906 127.164062 405.976562 141.640625 413.539062 C 147.296875 416.492188 149.308594 421.070312 148.171875 426.152344 C 147.15625 430.6875 143.402344 433.621094 137.339844 434.5 C 131.453125 435.355469 125.632812 434.582031 119.878906 433.410156 C 105.484375 430.484375 91.601562 425.953125 78.140625 420.042969 C 73.53125 418.011719 68.6875 416.476562 63.941406 414.714844 Z M 673.078125 132.742188 C 667.691406 135.535156 664.085938 138.84375 660.714844 142.304688 C 648.625 154.707031 636.4375 167.027344 624.757812 179.8125 C 603.152344 203.464844 589.472656 231.683594 579.089844 261.628906 C 575.863281 270.9375 576.238281 270.949219 586.257812 271.46875 C 589.5 271.636719 591.535156 271.207031 593.109375 267.8125 C 601.847656 248.964844 612.558594 231.214844 624.4375 214.207031 C 639.40625 192.773438 655.804688 172.488281 674.402344 154.054688 C 676.007812 152.464844 677.648438 151.0625 676.515625 148.445312 C 674.484375 143.75 674.132812 138.625 673.078125 132.742188 Z M 605.980469 273.042969 C 609.09375 274.976562 611.851562 275.027344 614.375 275.816406 C 618.222656 277.023438 620.484375 276.078125 622.769531 272.542969 C 628.984375 262.925781 635.621094 253.578125 642.273438 244.257812 C 655.523438 225.695312 671.414062 209.5625 688.703125 194.804688 C 693.988281 190.292969 693.859375 190.527344 691.355469 185.40625 C 689.304688 181.21875 688.625 176.597656 688.167969 171.957031 C 687.9375 169.605469 688.421875 167.070312 686.214844 164.167969 C 653.871094 196.554688 628.136719 233.402344 605.980469 273.042969 Z M 870.125 287.332031 C 876.554688 290.828125 881.042969 290.308594 885.503906 285.089844 C 890.070312 279.75 895.476562 275.058594 900.882812 270.519531 C 918.488281 255.753906 936.90625 242.296875 958.710938 234.066406 C 971.246094 229.335938 983.5625 224.101562 996.746094 221.3125 C 1001.34375 220.34375 1001.414062 219.929688 999.835938 216.191406 C 995.039062 204.816406 995.089844 205.039062 983.113281 207.871094 C 972.984375 210.265625 964.320312 215.851562 955 219.984375 C 940.242188 226.523438 926.316406 234.527344 913.863281 244.90625 C 906.5625 250.992188 899.179688 256.992188 892.132812 263.363281 C 884.210938 270.527344 876.527344 277.980469 870.125 287.332031 Z M 699.71875 205.660156 C 674.253906 227.464844 653.632812 252.160156 635.03125 279.605469 C 641.285156 281.570312 647.035156 282.230469 652.78125 282.902344 C 654.71875 283.128906 655.832031 282.21875 656.820312 280.535156 C 662.019531 271.664062 668.671875 263.835938 675.046875 255.832031 C 682.34375 246.675781 689.929688 237.746094 699.246094 230.492188 C 704.675781 226.265625 704.558594 226.265625 702.667969 219.273438 C 701.59375 215.289062 700.90625 211.203125 699.71875 205.660156 Z M 1101.128906 615.523438 C 1101.867188 612.6875 1100.269531 610.757812 1100.296875 608.589844 C 1100.347656 604.503906 1098.015625 602.675781 1094.320312 601.519531 C 1087.789062 599.476562 1081.605469 596.523438 1075.539062 593.363281 C 1053.84375 582.066406 1033.246094 568.984375 1013.625 554.402344 C 1001.855469 545.65625 990.425781 536.472656 981.808594 524.359375 C 981.066406 523.316406 980.402344 522.199219 978.96875 522.75 C 976.636719 523.644531 973.714844 523.382812 971.96875 525.714844 C 998.363281 557.367188 1061.679688 603.804688 1101.128906 615.523438 Z M 1098.257812 592.890625 C 1099.476562 590.910156 1098.894531 588.671875 1099.0625 586.554688 C 1099.730469 578.261719 1099.992188 579.539062 1092.675781 576.855469 C 1058.953125 564.480469 1029.839844 544.730469 1003.394531 520.785156 C 997.828125 515.746094 997.488281 515.507812 990.972656 520.15625 C 1004.5 539.636719 1075.667969 587.90625 1098.257812 592.890625 Z M 1012.648438 242.621094 C 1009.878906 235.425781 1009.875 235.398438 1003.316406 236.171875 C 1001.386719 236.398438 999.453125 236.710938 997.566406 237.179688 C 964.011719 245.503906 934.371094 261.386719 908.113281 283.730469 C 904.472656 286.828125 901 290.113281 896.808594 293.890625 C 899.140625 294.613281 900.304688 294.855469 901.367188 295.320312 C 906.265625 297.46875 910.070312 296.234375 913.757812 292.378906 C 916.9375 289.054688 920.707031 286.210938 924.5 283.566406 C 947.867188 267.28125 972.574219 253.65625 1000.261719 246.082031 C 1004.246094 244.992188 1008.21875 243.859375 1012.648438 242.621094 Z M 1009.859375 513.664062 C 1036.933594 537.859375 1065.90625 557.746094 1099.839844 569.894531 C 1102.179688 566.3125 1101.460938 562.449219 1102.394531 558.96875 C 1103.242188 555.816406 1101.777344 554.851562 1098.941406 553.964844 C 1072.34375 545.605469 1048.140625 532.679688 1027.027344 514.457031 C 1021.242188 509.457031 1016.40625 510.160156 1009.859375 513.664062 Z M 927.242188 301.277344 C 929.671875 301.871094 931.816406 302.292969 933.898438 302.929688 C 938.1875 304.238281 941.78125 303.710938 945.257812 300.421875 C 947.871094 297.953125 951.234375 296.222656 954.390625 294.386719 C 975.515625 282.085938 997.15625 270.898438 1020.742188 263.960938 C 1022.300781 263.5 1024.625 263.378906 1023.582031 260.871094 C 1022.796875 258.992188 1021.984375 256.5 1018.914062 257.371094 C 1017.976562 257.636719 1017.042969 257.917969 1016.089844 258.125 C 984.304688 264.992188 956.230469 279.953125 929.5 297.835938 C 928.523438 298.488281 927.417969 299.121094 927.242188 301.277344 Z M 1406.484375 458.8125 C 1399.890625 450.976562 1394.410156 444.527344 1389.015625 438.007812 C 1387.515625 436.195312 1385.765625 436.363281 1383.746094 436.601562 C 1368.4375 438.410156 1353.152344 437.851562 1337.871094 436.0625 C 1333.691406 435.574219 1329.449219 435.601562 1325.238281 435.394531 C 1350.695312 447.25 1377.101562 454.878906 1406.484375 458.8125 Z M 671.039062 284.308594 C 679.378906 284.757812 685.953125 285.089844 692.527344 285.480469 C 694.894531 285.621094 696.683594 285.28125 697.710938 282.628906 C 700.84375 274.496094 706.089844 267.796875 712.46875 261.9375 C 713.523438 260.964844 715.160156 259.960938 714.464844 258.371094 C 712.21875 253.253906 712.664062 247.460938 710.421875 241.617188 C 694.964844 253.605469 683.660156 268.464844 671.039062 284.308594 Z M 1033.164062 506.703125 C 1033.210938 507.097656 1033.144531 507.425781 1033.28125 507.5625 C 1034.117188 508.429688 1034.933594 509.335938 1035.875 510.078125 C 1054.417969 524.746094 1075.007812 535.726562 1097.074219 544.03125 C 1098.214844 544.460938 1099.363281 544.886719 1100.535156 545.214844 C 1102.503906 545.769531 1103.914062 545.242188 1104.222656 543.003906 C 1104.65625 539.863281 1105.628906 536.472656 1104.246094 533.632812 C 1103.015625 531.097656 1099.589844 531.492188 1097.089844 530.78125 C 1079.5625 525.800781 1063.089844 518.40625 1048.277344 507.847656 C 1042.914062 504.023438 1038.453125 503.609375 1033.164062 506.703125 Z M 952.683594 530.285156 C 953.726562 533.296875 956.175781 534.632812 958.101562 536.386719 C 985.71875 561.550781 1015.078125 584.546875 1044.988281 606.898438 C 1052.722656 612.679688 1061.421875 612.097656 1070.4375 614.742188 C 1069.191406 611.773438 1067.332031 611.480469 1065.902344 610.703125 C 1027.417969 589.824219 993.066406 563.585938 963.574219 531.179688 C 959.703125 526.929688 956.613281 528.742188 952.683594 530.285156 Z M 1037.960938 284.082031 C 1034.300781 277.054688 1034.289062 277 1027.765625 278.40625 C 1025.160156 278.96875 1022.59375 279.75 1020.050781 280.5625 C 1000.96875 286.652344 983.097656 295.484375 965.464844 304.832031 C 964.097656 305.554688 962.148438 305.777344 961.902344 308.28125 C 971.070312 311.117188 979.488281 312.667969 988.542969 306.300781 C 1003.332031 295.902344 1019.6875 288.3125 1037.960938 284.082031 Z M 529.265625 554.859375 C 534.96875 560.078125 540.132812 564.476562 544.925781 569.25 C 578.433594 602.628906 621.234375 617.011719 665.492188 628.445312 C 666.886719 628.804688 668.585938 629.15625 668.976562 627.105469 C 669.390625 624.949219 667.585938 624.992188 666.1875 624.722656 C 638.324219 619.367188 612.554688 608.621094 588.449219 593.894531 C 570.34375 582.835938 552.453125 571.386719 537.453125 556.109375 C 535.1875 553.800781 532.871094 554.3125 529.265625 554.859375 Z M 663.914062 600.949219 C 664.074219 596.253906 662.546875 594.273438 657.992188 593.035156 C 631.128906 585.746094 606.199219 574.207031 584.085938 557.089844 C 580.863281 554.597656 577.84375 553.886719 574.023438 554.851562 C 586.984375 571.902344 644.363281 601.429688 663.914062 600.949219 Z M 549.097656 555.335938 C 584.882812 584.027344 622.5 606.648438 667.4375 616.660156 C 667.609375 612.28125 666.984375 610.117188 662.875 609.929688 C 656.753906 609.644531 650.9375 607.6875 645.109375 605.863281 C 614.082031 596.164062 587.023438 579.578125 562.832031 558.167969 C 558.945312 554.726562 555.246094 553.613281 549.097656 555.335938 Z M 1104.25 523.398438 C 1104.859375 518.832031 1103.941406 515.265625 1103.609375 511.667969 C 1103.390625 509.28125 1102.222656 508.316406 1099.914062 508.101562 C 1089.769531 507.171875 1080.542969 503.179688 1071.582031 498.796875 C 1065.519531 495.828125 1060.621094 497.277344 1054.796875 500.703125 C 1070.179688 511.195312 1086.0625 518.753906 1104.25 523.398438 Z M 932.054688 535.847656 C 933.378906 537.046875 934.027344 537.761719 934.792969 538.3125 C 965.277344 560.324219 995.046875 583.265625 1024.3125 606.875 C 1026.582031 608.707031 1029.113281 610.21875 1031.570312 611.804688 C 1032.953125 612.699219 1034.429688 613.070312 1036.550781 611.902344 C 1034.140625 610.117188 1032.222656 608.660156 1030.265625 607.253906 C 1000.503906 585.839844 972.089844 562.777344 945.386719 537.640625 C 940.089844 532.65625 940.222656 532.515625 932.054688 535.847656 Z M 658.351562 584.898438 C 658.015625 580.972656 656.207031 578.609375 655.140625 575.980469 C 654.429688 574.226562 653.261719 573.503906 651.3125 573.210938 C 636.585938 571.003906 623.539062 564.398438 610.855469 557.082031 C 606.605469 554.628906 602.492188 553.832031 596.710938 555.09375 C 615.960938 568.707031 636.257812 577.8125 658.351562 584.898438 Z M 1051.796875 304.71875 C 1048.328125 298.144531 1048.34375 298.238281 1042.449219 299.324219 C 1029.636719 301.683594 1017.640625 306.261719 1006.265625 312.515625 C 1004.867188 313.285156 1002.929688 313.507812 1002.339844 316.132812 C 1006.5 317.113281 1010.648438 318.085938 1014.792969 319.0625 C 1016.371094 319.433594 1017.652344 318.667969 1018.910156 317.945312 C 1029.09375 312.105469 1039.851562 307.648438 1051.796875 304.71875 Z M 202.007812 395.972656 C 210.109375 395.988281 217.414062 392.035156 220.957031 385.988281 C 225.234375 378.683594 222.617188 371.09375 214.785156 368.101562 C 205.378906 364.507812 192.8125 369.835938 188.929688 379.0625 C 186.273438 385.375 188.523438 391.308594 194.683594 394.402344 C 197.160156 395.648438 199.773438 396.023438 202.007812 395.972656 Z M 1067.300781 331.714844 C 1065.914062 326.808594 1063.914062 323.292969 1061.699219 319.875 C 1060.960938 318.734375 1059.757812 318.257812 1058.535156 318.597656 C 1051.933594 320.429688 1044.886719 320.945312 1037.882812 325.292969 C 1048 327.847656 1056.972656 330.535156 1067.300781 331.714844 Z M 725.9375 270.328125 C 720.074219 274.246094 715.253906 278.675781 712.511719 285.496094 C 719.714844 285.496094 726.308594 285.496094 733.402344 285.496094 C 730.746094 280.097656 728.417969 275.375 725.9375 270.328125 Z M 1080.351562 491.78125 C 1083.378906 494.800781 1086.753906 495.59375 1089.859375 496.605469 C 1093.59375 497.828125 1098.550781 501.1875 1101.15625 498.011719 C 1103.621094 495.011719 1101.707031 489.769531 1099.082031 485.523438 C 1093.105469 487.523438 1087.023438 489.550781 1080.351562 491.78125 Z M 626.902344 554.425781 C 633.261719 559.253906 640.1875 562.558594 648.375 564.285156 C 646.4375 557.285156 642.679688 554.464844 636.335938 554.894531 C 633.214844 555.105469 630.046875 554.605469 626.902344 554.425781 Z M 626.902344 554.425781 "/></g><path style=" stroke:none;fill-rule:nonzero;fill:#ebcc00;fill-opacity:1;" d="M 466.660156 340.179688 C 469.019531 342.9375 471.378906 345.695312 473.738281 348.453125 C 483.082031 359.359375 489.585938 371.890625 494.429688 385.292969 C 497.566406 393.976562 496.457031 397.03125 488.488281 401.574219 C 473.605469 410.054688 459.433594 419.554688 445.996094 430.167969 C 444.46875 431.371094 442.894531 432.574219 441.179688 433.472656 C 438.964844 434.628906 436.855469 434.039062 435.238281 432.1875 C 433.601562 430.3125 433.386719 428.089844 434.894531 426.140625 C 436.222656 424.429688 437.90625 422.957031 439.582031 421.558594 C 452.167969 411.0625 465.542969 401.667969 479.539062 393.152344 C 484.761719 389.976562 484.707031 389.9375 482.269531 384.148438 C 476.113281 369.511719 467.238281 356.816406 455.324219 346.277344 C 454.957031 345.953125 454.523438 345.675781 454.246094 345.289062 C 446.40625 334.421875 434.8125 332.304688 422.578125 331.703125 C 415.75 331.367188 408.933594 330.691406 402.082031 331.433594 C 400.644531 331.585938 399.117188 331.613281 397.71875 331.300781 C 394.578125 330.597656 392.503906 328.707031 392.246094 325.304688 C 391.996094 321.945312 393.582031 319.523438 396.640625 318.46875 C 400.816406 317.023438 405.210938 316.648438 409.640625 316.636719 C 429.03125 316.59375 448.019531 319.894531 467.046875 323.160156 C 532.070312 334.3125 595.507812 352.398438 659.738281 367.011719 C 709.066406 378.238281 758.839844 386.550781 809.179688 391.71875 C 850.25 395.9375 891.363281 399.261719 932.617188 400.988281 C 970.226562 402.5625 1007.839844 401.9375 1045.445312 401.121094 C 1081.839844 400.332031 1118.21875 400.265625 1154.617188 401.042969 C 1184.160156 401.675781 1213.726562 401.507812 1243.28125 401.777344 C 1268.191406 402.007812 1293.105469 402.335938 1318.015625 402.664062 C 1324.96875 402.757812 1328.234375 404.824219 1328.628906 409.167969 C 1329.03125 413.605469 1325.117188 417.257812 1318.746094 417.902344 C 1315.117188 418.273438 1311.425781 418.105469 1307.765625 418.074219 C 1234.246094 417.445312 1160.726562 416.527344 1087.207031 416.277344 C 1047.886719 416.144531 1008.558594 417.695312 969.242188 417.496094 C 928.699219 417.292969 888.226562 414.804688 847.832031 411.082031 C 813.800781 407.945312 779.808594 404.597656 746.011719 399.34375 C 705.703125 393.082031 665.855469 384.757812 626.277344 374.910156 C 587.453125 365.25 548.496094 356.089844 509.511719 347.078125 C 495.519531 343.84375 481.277344 341.679688 467.148438 339.03125 C 466.984375 339.414062 466.824219 339.796875 466.660156 340.179688 Z M 466.660156 340.179688 "/><path style=" stroke:none;fill-rule:nonzero;fill:#ebcc00;fill-opacity:1;" d="M 461.167969 454.34375 C 458.25 454.589844 455.332031 454.945312 452.40625 455.058594 C 449.46875 455.167969 446.910156 454.273438 446.578125 450.878906 C 446.257812 447.617188 448.332031 446.03125 451.289062 445.390625 C 452.960938 445.03125 454.625 444.632812 456.304688 444.347656 C 503.472656 436.375 550.644531 428.414062 597.8125 420.4375 C 598.027344 420.402344 598.214844 420.175781 598.429688 420.027344 C 598.625 418.683594 597.65625 418.488281 596.722656 418.460938 C 560.214844 417.359375 523.953125 418.570312 488.699219 429.640625 C 477.746094 433.082031 467.109375 437.378906 456.382812 441.417969 C 455.015625 441.933594 453.699219 442.640625 452.292969 442.953125 C 450.511719 443.347656 448.914062 442.824219 447.84375 441.183594 C 446.566406 439.234375 447.050781 437.457031 448.425781 435.824219 C 449.886719 434.085938 451.960938 433.292969 453.960938 432.375 C 489.597656 416.074219 527.117188 408.460938 566.191406 407.972656 C 578.652344 407.816406 591.117188 407.8125 603.53125 408.988281 C 618.382812 410.390625 631.421875 415.691406 641.625 427.035156 C 651.917969 438.476562 650.890625 453.535156 638.714844 462.925781 C 627.824219 471.328125 615.371094 477.125 603.03125 482.996094 C 585.375 491.394531 567.3125 498.808594 548.160156 503.125 C 532.074219 506.75 516.203125 505.699219 500.480469 500.664062 C 489.097656 497.019531 477.605469 493.753906 465.6875 492.144531 C 458.835938 491.222656 452.042969 491.578125 445.21875 491.890625 C 441.652344 492.054688 439.09375 490.96875 438.265625 487.011719 C 436.996094 480.96875 438.820312 478.246094 445.101562 477.828125 C 460.695312 476.789062 476.296875 475.878906 491.894531 474.902344 C 527.71875 472.660156 563.539062 470.410156 599.363281 468.164062 C 600.335938 468.101562 601.378906 467.796875 602.277344 468.027344 C 611.320312 470.347656 617.136719 464.167969 623.675781 459.261719 C 616.578125 459.859375 609.472656 460.394531 602.378906 461.070312 C 579.050781 463.289062 555.726562 465.558594 532.398438 467.808594 C 508.34375 470.125 484.289062 472.449219 460.230469 474.742188 C 456.828125 475.066406 453.410156 475.234375 449.992188 475.421875 C 448.523438 475.503906 447.007812 475.433594 445.757812 474.574219 C 444.25 473.542969 442.769531 471.347656 443.835938 470.300781 C 447.863281 466.351562 441.019531 462.085938 444.550781 458.480469 C 445.355469 457.65625 446.578125 457.152344 447.695312 456.742188 C 449.769531 455.980469 451.921875 455.6875 454.164062 455.757812 C 456.550781 455.832031 459.113281 456.335938 461.046875 454.226562 C 464.226562 454.984375 467.363281 454.460938 470.488281 453.953125 C 481.066406 452.238281 491.601562 450.214844 502.214844 448.804688 C 544.476562 443.191406 586.757812 437.765625 629.03125 432.273438 C 629.832031 432.171875 630.289062 431.710938 630.558594 430.640625 C 627.9375 427.378906 625.21875 425.8125 620.171875 426.710938 C 580.121094 433.832031 539.980469 440.441406 499.890625 447.347656 C 486.96875 449.566406 473.917969 451.136719 461.167969 454.34375 Z M 488.535156 485.25 C 504.242188 491.140625 519.621094 497.195312 536.425781 494.921875 C 552.632812 492.726562 567.867188 487.347656 582.722656 480.863281 C 582.628906 480.394531 582.535156 479.917969 582.4375 479.449219 C 551.136719 481.382812 519.835938 483.316406 488.535156 485.25 Z M 499.472656 460.4375 C 503.066406 460.226562 506.671875 460.109375 510.261719 459.78125 C 517.789062 459.089844 525.304688 458.246094 532.835938 457.542969 C 561.011719 454.90625 589.191406 452.296875 617.371094 449.683594 C 623.445312 449.121094 629.519531 448.574219 635.597656 448.039062 C 637.886719 447.835938 638.234375 446.25 638.246094 444.417969 C 638.257812 442.128906 636.9375 441.519531 634.898438 441.738281 C 628.351562 442.433594 621.769531 442.875 615.265625 443.832031 C 594.992188 446.8125 574.726562 449.765625 554.351562 452.019531 C 535.972656 454.046875 517.640625 456.476562 499.472656 460.4375 Z M 492.785156 461.519531 C 492.695312 461.242188 492.605469 460.96875 492.519531 460.691406 C 491.523438 460.863281 490.527344 461.03125 489.535156 461.199219 C 490.617188 461.304688 491.699219 461.410156 492.785156 461.519531 Z M 492.785156 461.519531 "/><path style=" stroke:none;fill-rule:nonzero;fill:#ebcc00;fill-opacity:1;" d="M 338.082031 391.898438 C 337.898438 402.453125 336.375 412.78125 333.363281 422.910156 C 331.351562 429.683594 329.757812 436.585938 327.667969 443.332031 C 326.492188 447.113281 323.445312 449.003906 320.632812 448.4375 C 317.328125 447.773438 315.4375 444.710938 316.433594 440.382812 C 318.132812 433.023438 320.167969 425.738281 322.230469 418.472656 C 327.257812 400.75 327.972656 382.945312 323.730469 364.964844 C 322.886719 361.386719 321.75 357.941406 320.40625 354.53125 C 318.488281 349.664062 318.96875 347.175781 321.96875 345.652344 C 325.089844 344.070312 327.882812 345.640625 330.285156 350.523438 C 331.25 352.484375 332.0625 354.542969 332.71875 356.628906 C 336.320312 368.109375 338.183594 379.863281 338.082031 391.898438 Z M 338.082031 391.898438 "/><path style=" stroke:none;fill-rule:nonzero;fill:#ebcc00;fill-opacity:1;" d="M 347.511719 500.53125 C 345.515625 500.5625 343.261719 499.867188 342.3125 497.121094 C 341.394531 494.464844 342.355469 492.28125 344.535156 490.734375 C 346.109375 489.617188 347.886719 488.765625 349.609375 487.863281 C 369.738281 477.351562 389.109375 465.695312 406.160156 450.519531 C 407.066406 449.714844 408.03125 448.933594 409.078125 448.339844 C 412.296875 446.515625 415.292969 446.882812 416.855469 449.359375 C 418.558594 452.066406 417.816406 454.449219 415.550781 456.507812 C 411.765625 459.949219 408.261719 463.761719 404.171875 466.789062 C 388.898438 478.097656 373.570312 489.347656 356.359375 497.667969 C 353.726562 498.9375 351.167969 500.390625 347.511719 500.53125 Z M 347.511719 500.53125 "/><path style=" stroke:none;fill-rule:nonzero;fill:#ebcc00;fill-opacity:1;" d="M 412.398438 484.636719 C 412.289062 487.023438 411.027344 488.71875 409.210938 490.125 C 398.789062 498.175781 387.730469 505.289062 376.523438 512.175781 C 375.035156 513.09375 373.417969 513.59375 371.660156 513.480469 C 367.445312 513.210938 365.300781 509.183594 367.457031 505.578125 C 368.492188 503.847656 370.164062 502.796875 371.8125 501.761719 C 382.113281 495.277344 392.699219 489.238281 402.445312 481.890625 C 403.589844 481.03125 404.960938 480.292969 406.335938 479.964844 C 409.394531 479.226562 412.328125 481.605469 412.398438 484.636719 Z M 412.398438 484.636719 "/><path style=" stroke:none;fill-rule:nonzero;fill:#ebcc00;fill-opacity:1;" d="M 201.949219 391.609375 C 198.691406 391.316406 195.421875 389.960938 193.015625 386.863281 C 191.910156 385.441406 191.410156 383.84375 191.722656 382.078125 C 192.089844 380.003906 193.488281 379.554688 195.460938 379.550781 C 197.882812 379.546875 198.367188 377.78125 197.359375 376.035156 C 195.890625 373.5 197.578125 372.46875 199.15625 371.371094 C 202.972656 368.710938 207.054688 367.515625 211.476562 369.832031 C 214.796875 371.566406 216.4375 374.457031 216.4375 378.164062 C 216.441406 384.8125 209.226562 391.714844 201.949219 391.609375 Z M 201.949219 391.609375 "/><g clip-rule="nonzero" clip-path="url(#e62f8a903d)"><g clip-rule="nonzero" clip-path="url(#38abe68f17)"><path style=" stroke:none;fill-rule:nonzero;fill:#ebcc00;fill-opacity:1;" d="M 201.257812 375 L 211.910156 375 L 211.910156 385.652344 L 201.257812 385.652344 Z M 201.257812 375 "/></g></g></g></svg>
